<svg width="22" height="22" viewBox="0 0 22 22" fill="none" xmlns="http://www.w3.org/2000/svg">
<path d="M3.88682 16.8241C5.01182 16.0384 6.12789 15.4357 7.23504 15.016C8.34218 14.5964 9.52968 14.3866 10.7975 14.3866C12.0654 14.3866 13.2574 14.5964 14.3734 15.016C15.4895 15.4357 16.61 16.0384 17.735 16.8241C18.5208 15.8598 19.0788 14.8866 19.4091 13.9044C19.7395 12.9223 19.9047 11.8866 19.9047 10.7973C19.9047 8.20801 19.0341 6.04283 17.2931 4.30176C15.552 2.56069 13.3868 1.69015 10.7975 1.69015C8.20825 1.69015 6.04307 2.56069 4.302 4.30176C2.56093 6.04283 1.69039 8.20801 1.69039 10.7973C1.69039 11.8866 1.86004 12.9223 2.19932 13.9044C2.53861 14.8866 3.10111 15.8598 3.88682 16.8241ZM10.7926 11.6009C9.76016 11.6009 8.89129 11.2465 8.18593 10.5378C7.48057 9.82917 7.12789 8.95863 7.12789 7.92624C7.12789 6.89385 7.48223 6.02497 8.19091 5.31961C8.89959 4.61426 9.77013 4.26158 10.8025 4.26158C11.8349 4.26158 12.7038 4.61592 13.4091 5.3246C14.1145 6.03328 14.4672 6.90381 14.4672 7.9362C14.4672 8.9686 14.2087 9.79464 13.5 10.5C12.7913 11.2054 11.8249 11.6009 10.7926 11.6009ZM10.8101 21.5116C9.33743 21.5116 7.94932 21.2303 6.64575 20.6678C5.34218 20.1053 4.20379 19.3375 3.23057 18.3643C2.25736 17.391 1.4895 16.2547 0.927002 14.9553C0.364502 13.656 0.083252 12.2676 0.083252 10.7902C0.083252 9.31278 0.364502 7.92676 0.927002 6.63211C1.4895 5.33747 2.25736 4.20354 3.23057 3.23033C4.20379 2.25712 5.34009 1.48926 6.63948 0.926758C7.93888 0.364258 9.32727 0.0830078 10.8047 0.0830078C12.2821 0.0830078 13.6681 0.364258 14.9627 0.926758C16.2574 1.48926 17.3913 2.25712 18.3645 3.23033C19.3377 4.20354 20.1056 5.33776 20.6681 6.63297C21.2306 7.92819 21.5118 9.31211 21.5118 10.7848C21.5118 12.2574 21.2306 13.6455 20.6681 14.9491C20.1056 16.2527 19.3377 17.391 18.3645 18.3643C17.3913 19.3375 16.2571 20.1053 14.9619 20.6678C13.6666 21.2303 12.2827 21.5116 10.8101 21.5116ZM10.7975 19.9044C11.7797 19.9044 12.7395 19.7616 13.677 19.4759C14.6145 19.1902 15.5386 18.6902 16.4493 17.9759C15.5386 17.333 14.61 16.8419 13.6636 16.5027C12.7172 16.1634 11.7618 15.9937 10.7975 15.9937C9.83325 15.9937 8.87789 16.1634 7.93147 16.5027C6.98504 16.8419 6.05647 17.333 5.14575 17.9759C6.05647 18.6902 6.98057 19.1902 7.91807 19.4759C8.85557 19.7616 9.81539 19.9044 10.7975 19.9044ZM10.7975 9.99372C11.4047 9.99372 11.9002 9.80176 12.2841 9.41783C12.6681 9.0339 12.86 8.53836 12.86 7.93122C12.86 7.32408 12.6681 6.82854 12.2841 6.44461C11.9002 6.06069 11.4047 5.86872 10.7975 5.86872C10.1904 5.86872 9.69486 6.06069 9.31093 6.44461C8.927 6.82854 8.73504 7.32408 8.73504 7.93122C8.73504 8.53836 8.927 9.0339 9.31093 9.41783C9.69486 9.80176 10.1904 9.99372 10.7975 9.99372Z" fill="#E1E1E1"/>
</svg>
