<svg width="23" height="23" viewBox="0 0 23 23" fill="none" xmlns="http://www.w3.org/2000/svg">
<path d="M1.29422 22.6219L9.41741 14.7193C10.0351 15.2401 10.7554 15.6458 11.5782 15.9362C12.401 16.2267 13.2765 16.3719 14.2048 16.3719C16.432 16.3719 18.3169 15.6207 19.8596 14.1183C21.4023 12.6159 22.1736 10.803 22.1736 8.67961C22.1736 6.55622 21.4014 4.74331 19.8571 3.24091C18.3128 1.73851 16.4441 0.987305 14.2512 0.987305C12.0582 0.987305 10.1947 1.73851 8.66068 3.24091C7.12665 4.74331 6.35963 6.55772 6.35963 8.68412C6.35963 9.54249 6.50377 10.3723 6.79204 11.1736C7.08032 11.9749 7.51273 12.7261 8.08928 13.4272L-0.0647888 21.2998L1.29422 22.6219ZM14.2357 14.569C12.5627 14.569 11.1406 13.9931 9.9695 12.8413C8.79839 11.6894 8.21283 10.3022 8.21283 8.67961C8.21283 7.05702 8.79839 5.6698 9.9695 4.51795C11.1406 3.36611 12.5627 2.79019 14.2357 2.79019C15.9259 2.79019 17.3626 3.36611 18.5457 4.51795C19.7288 5.6698 20.3204 7.05702 20.3204 8.67961C20.3204 10.3022 19.7288 11.6894 18.5457 12.8413C17.3626 13.9931 15.9259 14.569 14.2357 14.569Z" fill="#E1E1E1"/>
</svg>
